<svg width="137" height="203" viewBox="0 0 137 203" fill="none" xmlns="http://www.w3.org/2000/svg">
<path d="M70.0973 165.495C83.8912 170.502 99.9069 168.201 111.931 158.063C129.832 142.97 132.109 116.223 117.016 98.3217C109.615 89.5444 99.4128 84.5236 88.8253 83.4648C83.9656 87.8713 79.092 93.0472 74.5916 99.6354C58.6047 123.039 56.5821 145.343 70.0973 165.495Z" fill="#6E56FF"/>
<path d="M65.4147 174.054C70.3708 179.933 79.2157 185.139 88.1546 188.798C91.1535 190.025 94.2906 191.13 97.4532 192.053C85.1986 191.817 72.3499 188.769 60.3943 183.445C42.4053 175.434 28.5153 161.692 20.6707 146.75C12.7258 131.617 8.69028 113.119 10.4689 94.0329C12.2484 74.936 18.4542 56.8781 27.5425 44.4849C46.6623 18.4125 66.912 7.79206 86.5619 10.3776C96.3941 11.6713 103.623 16.3735 107.822 22.6004C112.019 28.8241 113.49 37.0105 110.982 45.9043C108.61 54.3135 102.838 59.546 94.043 66.4606C93.364 66.9945 92.6702 67.5362 91.9635 68.0879C83.7104 74.5316 73.705 82.3435 65.0484 95.0159C55.8044 108.548 50.6601 122.225 50.5619 135.772C50.463 149.423 55.4943 162.288 65.4147 174.054Z" fill="#F8FAFF"/>
</svg>
