<svg width="707" height="203" viewBox="0 0 707 203" fill="none" xmlns="http://www.w3.org/2000/svg">
<path d="M88.9681 188.798C80.0292 185.139 71.1843 179.933 66.2281 174.054C56.3077 162.288 51.2765 149.423 51.3754 135.772C51.4735 122.225 56.6178 108.548 65.8619 95.0159C74.5184 82.3435 84.5238 74.5317 92.7769 68.088L92.7779 68.0872C93.4843 67.5357 94.1778 66.9943 94.8565 66.4606C103.651 59.546 109.424 54.3135 111.795 45.9043C114.303 37.0105 112.833 28.8241 108.636 22.6004C104.437 16.3735 97.2076 11.6713 87.3754 10.3776C67.7255 7.79206 47.4758 18.4125 28.356 44.4849C19.2676 56.8781 13.0619 74.936 11.2823 94.0329C9.50375 113.119 13.5393 131.617 21.4841 146.75C29.3288 161.692 43.2188 175.434 61.2078 183.445C73.1634 188.769 86.0121 191.817 98.2667 192.053C95.1041 191.13 91.967 190.025 88.9681 188.798Z" fill="#0F0F0F"/>
<path d="M212.183 168.304C219.853 172.594 228.499 174.739 238.119 174.739C245.53 174.739 252.355 173.374 258.595 170.644C264.836 167.914 270.361 163.949 275.171 158.748L258.595 142.172C256.125 145.032 253.135 147.243 249.625 148.803C246.245 150.233 242.409 150.948 238.119 150.948C233.439 150.948 229.214 149.908 225.443 147.828C221.803 145.617 218.878 142.627 216.668 138.857C214.588 134.957 213.548 130.536 213.548 125.596C213.548 120.526 214.588 116.171 216.668 112.53C218.878 108.76 221.803 105.835 225.443 103.755C229.214 101.545 233.439 100.44 238.119 100.44C242.279 100.44 246.05 101.155 249.43 102.585C252.94 104.015 255.93 106.095 258.4 108.825L274.781 92.2491C270.231 87.1788 264.836 83.2786 258.595 80.5484C252.355 77.8183 245.53 76.4532 238.119 76.4532C228.629 76.4532 219.983 78.6633 212.183 83.0836C204.512 87.3739 198.467 93.2242 194.046 100.635C189.626 108.045 187.416 116.431 187.416 125.791C187.416 135.022 189.626 143.342 194.046 150.753C198.467 158.163 204.512 164.014 212.183 168.304Z" fill="#0F0F0F"/>
<path fill-rule="evenodd" clip-rule="evenodd" d="M382.088 174.739C372.598 174.739 364.017 172.594 356.347 168.304C348.806 163.884 342.761 157.968 338.211 150.558C333.79 143.017 331.58 134.632 331.58 125.401C331.58 116.171 333.79 107.915 338.211 100.635C342.631 93.2242 348.676 87.3739 356.347 83.0836C364.017 78.6633 372.533 76.4532 381.893 76.4532C391.514 76.4532 400.094 78.6633 407.635 83.0836C415.305 87.3739 421.351 93.2242 425.771 100.635C430.191 107.915 432.401 116.171 432.401 125.401C432.401 134.632 430.191 143.017 425.771 150.558C421.351 157.968 415.305 163.884 407.635 168.304C400.094 172.594 391.579 174.739 382.088 174.739ZM381.893 150.948C386.704 150.948 390.929 149.908 394.569 147.828C398.339 145.617 401.2 142.627 403.15 138.857C405.23 134.957 406.27 130.536 406.27 125.596C406.27 120.656 405.23 116.301 403.15 112.53C401.069 108.76 398.209 105.835 394.569 103.755C390.929 101.545 386.704 100.44 381.893 100.44C377.213 100.44 373.053 101.545 369.413 103.755C365.772 105.835 362.912 108.76 360.832 112.53C358.752 116.301 357.712 120.656 357.712 125.596C357.712 130.536 358.752 134.957 360.832 138.857C362.912 142.627 365.772 145.617 369.413 147.828C373.053 149.908 377.213 150.948 381.893 150.948Z" fill="#0F0F0F"/>
<path fill-rule="evenodd" clip-rule="evenodd" d="M465.034 168.304C471.924 172.594 479.66 174.739 488.24 174.739C495.001 174.739 501.046 173.374 506.376 170.644C509.92 168.743 512.975 166.41 515.542 163.647V174.739H540.894V78.5983H515.542V87.6536C512.975 84.8618 509.92 82.5584 506.376 80.7434C501.046 78.0133 495.001 76.6482 488.24 76.6482C479.66 76.6482 471.924 78.7933 465.034 83.0836C458.144 87.3739 452.748 93.2242 448.848 100.635C444.948 108.045 442.998 116.431 442.998 125.791C442.998 135.022 444.948 143.342 448.848 150.753C452.748 158.163 458.144 164.014 465.034 168.304ZM510.277 144.122C505.856 148.803 500.071 151.143 492.921 151.143C488.24 151.143 484.08 150.103 480.44 148.023C476.93 145.812 474.134 142.822 472.054 139.052C470.104 135.152 469.129 130.667 469.129 125.596C469.129 120.656 470.104 116.301 472.054 112.53C474.134 108.63 476.93 105.64 480.44 103.56C484.08 101.35 488.24 100.245 492.921 100.245C497.731 100.245 501.891 101.35 505.401 103.56C509.042 105.64 511.837 108.63 513.787 112.53C515.867 116.301 516.907 120.656 516.907 125.596C516.907 133.137 514.697 139.312 510.277 144.122Z" fill="#0F0F0F"/>
<path d="M625.561 174.739L589.04 126.791V174.739H563.494V27.3145H589.04V121.778L623.362 78.5983H652.809L615.852 123.354L656.763 174.739H625.561Z" fill="#0F0F0F"/>
<path d="M669.521 170.059C672.511 173.179 676.346 174.739 681.027 174.739C685.577 174.739 689.347 173.179 692.337 170.059C695.327 166.939 696.823 163.104 696.823 158.553C696.823 154.003 695.327 150.168 692.337 147.048C689.347 143.927 685.577 142.367 681.027 142.367C676.346 142.367 672.511 143.927 669.521 147.048C666.531 150.168 665.036 154.003 665.036 158.553C665.036 163.104 666.531 166.939 669.521 170.059Z" fill="#0F0F0F"/>
<path d="M70.9108 165.495C84.7047 170.502 100.72 168.201 112.745 158.063C130.646 142.97 132.922 116.223 117.829 98.3217C110.429 89.5444 100.226 84.5236 89.6388 83.4648C84.7791 87.8713 79.9055 93.0472 75.4051 99.6354C59.4182 123.039 57.3956 145.343 70.9108 165.495Z" fill="#6E56FF"/>
<path d="M289.639 27.3145V174.739H315.185V27.3145H289.639Z" fill="#0F0F0F"/>
</svg>
